<?xml version="1.0" encoding="iso-8859-1"?>
<!-- Generator: Adobe Illustrator 16.0.0, SVG Export Plug-In . SVG Version: 6.00 Build 0)  -->
<!DOCTYPE svg PUBLIC "-//W3C//DTD SVG 1.1//EN" "http://www.w3.org/Graphics/SVG/1.1/DTD/svg11.dtd">
<svg version="1.1" id="Capa_1" xmlns="http://www.w3.org/2000/svg" xmlns:xlink="http://www.w3.org/1999/xlink" x="0px" y="0px"
	 width="516.301px" height="516.301px" viewBox="0 0 516.301 516.301" style="enable-background:new 0 0 516.301 516.301;"
	 xml:space="preserve">
<g>
	<path d="M459.101,237.101c0-57.4-47.801-103.3-105.2-103.3c-21,0-38.2,5.7-55.5,15.3c-24.9-32.5-63.1-53.5-107.1-53.5
		c-74.6,0-133.9,59.3-133.9,133.9c0,1.9,0,5.7,0,7.6c-34.4,15.3-57.4,47.801-57.4,88c0,53.5,42.1,95.6,95.6,95.6h325.1
		c53.5,0,95.6-42.1,95.6-95.6C516.5,284.901,493.5,252.401,459.101,237.101z M258.3,363.3c-5.699,0-9.6-3.799-9.6-9.6
		c0-5.799,3.8-9.6,9.6-9.6c5.801,0,9.601,3.801,9.601,9.6C267.9,359.501,264,363.3,258.3,363.3z M267.8,315.501
		c0,5.699-3.8,9.6-9.6,9.6s-9.6-3.801-9.6-9.6v-95.6c0-5.7,3.8-9.6,9.6-9.6s9.6,3.8,9.6,9.6V315.501z"/>
</g>
<g>
</g>
<g>
</g>
<g>
</g>
<g>
</g>
<g>
</g>
<g>
</g>
<g>
</g>
<g>
</g>
<g>
</g>
<g>
</g>
<g>
</g>
<g>
</g>
<g>
</g>
<g>
</g>
<g>
</g>
</svg>
